<svg width="512" height="512" viewBox="0 0 512 512" fill="none" xmlns="http://www.w3.org/2000/svg">
<g clip-path="url(#clip0_1_13)">
<rect width="512" height="512" fill="white"/>
<path fill-rule="evenodd" clip-rule="evenodd" d="M0 256V512H256H512V256V0H256H0V256Z" fill="#FF8200"/>
<path d="M0 512V256V0H138.34H259.821L194 200L254 337L221 512H0Z" fill="#169B62"/>
<path fill-rule="evenodd" clip-rule="evenodd" d="M237.359 3.334C231.292 7.496 225.713 14.734 223.651 21.117C222.407 24.97 222.205 28.456 222.696 37.612L223.318 49.223L226.409 51.107C228.109 52.144 229.95 53.155 230.5 53.354C231.552 53.734 228.456 59.95 226.575 61.235C225.984 61.639 222.125 61.981 218 61.994C208.41 62.027 202.163 64.801 193.832 72.727C182.954 83.078 178.205 91.009 164.501 121.711L157.712 136.921L150.205 137.211L142.698 137.5L132.845 166.339C127.426 182.201 123.256 195.605 123.577 196.125C123.899 196.646 127.051 198.896 130.581 201.125C134.111 203.355 137 205.726 137 206.393C137 207.061 135.42 212.299 133.489 218.033C130.449 227.061 129.311 229.135 125.01 233.49C120.516 238.041 119.431 240.136 113.604 255.51L107.165 272.5L102.026 273.033C99.199 273.326 96.553 274.105 96.146 274.764C95.739 275.422 94.407 287.81 93.186 302.292C91.293 324.736 89.455 339.736 87.52 348.526C87.275 349.64 83.895 352.969 80.008 355.923C64.528 367.692 64.792 367.247 42.57 419.045C21.718 467.649 18.824 476.328 21.196 483.132C22.043 485.561 21.31 487.408 15.079 498.568C11.185 505.541 8 511.415 8 511.623C8 511.83 18.995 512 32.433 512C54.85 512 56.905 511.856 57.35 510.25C57.617 509.287 58.139 503.807 58.511 498.071C58.882 492.335 59.589 486.581 60.082 485.286C60.574 483.99 76.86 462.358 96.271 437.215C115.683 412.072 132.664 389.939 134.006 388.032C135.348 386.124 145.044 364.974 155.553 341.032C171.97 303.624 175.044 297.312 177.402 296.161C181.179 294.316 182.106 295.303 192.622 312.363C210.138 340.781 220.047 353.812 227.029 357.612C229.763 359.1 231.994 360.809 231.986 361.409C231.979 362.009 227.025 371.472 220.977 382.437L209.982 402.374L205.484 425.937C202.855 439.708 198.454 458.227 194.894 470.5C188.658 491.994 186.11 503.004 186.04 508.75L186 512H228.393C274.954 512 272 512.408 272 505.974C272 503.191 271.674 503.011 260.25 499.506C253.787 497.523 247.234 495.407 245.687 494.803C242.907 493.718 235 483.379 235 480.828C235 480.124 238.116 476.386 241.924 472.524L248.848 465.5L269.67 415L290.492 364.5L290.407 355.5C290.338 348.288 289.823 345.308 287.814 340.5C284.527 332.632 244.778 260.713 241.685 257.038C239.566 254.519 239.215 252.824 238.587 242.1C238.198 235.447 238.158 229.553 238.499 229.002C238.839 228.451 240.811 228 242.879 228H246.64L259.372 203.336L272.104 178.673L268.961 174.297L265.819 169.92L270.08 165.21C272.423 162.62 274.47 160.332 274.628 160.126C274.786 159.92 280.049 162.732 286.323 166.376C292.597 170.019 298.644 173 299.76 173C303.235 173 314.515 169.13 317.947 166.76C320.551 164.962 322.187 162.147 325.944 153C328.542 146.675 331.08 141.579 331.584 141.676C332.088 141.772 333.127 144.472 333.892 147.676C334.658 150.879 335.414 153.656 335.572 153.847C336.008 154.372 364.38 147.847 365.313 147.007C365.759 146.604 364.537 139.463 362.597 131.137L359.068 115.998L360.995 112.733C362.055 110.937 363.729 105.65 364.715 100.984L366.508 92.5L407.212 92.239L447.916 91.978L448.208 84.239L448.5 76.5L464.25 76.225L480 75.949V72V68.051L464.25 67.775L448.5 67.5L448.448 62.474C448.358 53.941 446.242 53.137 441.987 60.022L439.528 64H369.381H299.233L298.665 61.826C297.829 58.631 298.634 58 303.54 58C307.545 58 308.021 57.741 308.588 55.25C308.932 53.737 310.066 49.05 311.107 44.833C313.525 35.04 313.529 35.08 310.144 33.9C308.047 33.169 306.981 31.88 306.133 29.05C303.105 18.943 292.767 8.055 281 2.579C275.797 0.158 274.603 0.019 258.859 0.01L242.218 0L237.359 3.334Z" fill="white"/>
</g>
<defs>
<clipPath id="clip0_1_13">
<rect width="512" height="512" fill="white"/>
</clipPath>
</defs>
</svg>
